<?xml version="1.0" encoding="utf-8"?>
<!-- Generator: Adobe Illustrator 24.2.1, SVG Export Plug-In . SVG Version: 6.00 Build 0)  -->
<svg version="1.1" id="Layer_1" xmlns="http://www.w3.org/2000/svg" xmlns:xlink="http://www.w3.org/1999/xlink" x="0px" y="0px"
	 viewBox="0 0 100 125" style="enable-background:new 0 0 100 125;" xml:space="preserve">
<style type="text/css">
	.st0{fill-rule:evenodd;clip-rule:evenodd;fill:#FFFFFF;}
</style>
<path class="st0" d="M12,18c0-2.8,2.3-5,5-5h65c2.7,0,5,2.2,5,5v26c0,1.1-0.9,2-2,2h-4c-1.1,0-2-0.9-2-2s0.9-2,2-2h2V18
	c0-0.5-0.4-1-1-1H17c-0.6,0-1,0.5-1,1v24h1c1.1,0,2,0.9,2,2s-0.9,2-2,2h-3c-1.1,0-2-0.9-2-2V18z M65,24c0-1.1,0.9-2,2-2h7
	c1.1,0,2,0.9,2,2s-0.9,2-2,2h-7C65.9,26,65,25.1,65,24z M40.7,30H23c-1.1,0-2,0.9-2,2v50.1c0,2.7,2.2,4.9,4.9,4.9h46.1
	c2.7,0,4.9-2.2,4.9-4.9V32c0-1.1-0.9-2-2-2H58.3c0,0,0,0,0,0H40.7C40.7,30,40.7,30,40.7,30z M57.4,34H41.6c-1,1.4-1.6,3.2-1.6,5
	c0,4.9,4.2,9,9.5,9c5.3,0,9.5-4.1,9.5-9C59,37.2,58.4,35.4,57.4,34z M61.9,34c0.7,1.5,1.1,3.2,1.1,5c0,7.2-6.1,13-13.5,13
	C42.1,52,36,46.3,36,39c0-1.8,0.4-3.5,1.1-5H25v48.1c0,0.5,0.4,0.9,0.9,0.9h46.1c0.5,0,0.9-0.4,0.9-0.9V34H61.9z M36,59
	c1.1,0,2,0.9,2,2v12c0,1.1-0.9,2-2,2s-2-0.9-2-2V61C34,59.9,34.9,59,36,59z"/>
</svg>
